<svg id="Calque_1" data-name="Calque 1" xmlns="http://www.w3.org/2000/svg" viewBox="0 0 804.49 357.61"><defs><style>.cls-1{fill:#fff;}.cls-1,.cls-2{stroke:#1d1d1b;stroke-linecap:round;stroke-linejoin:round;stroke-width:14px;}.cls-2{fill:none;}</style></defs><line class="cls-1" x1="202.82" y1="166.14" x2="797.49" y2="166.14"/><line class="cls-1" x1="692.74" y1="7" x2="692.74" y2="350.61"/><polyline class="cls-2" points="169.56 43.57 299.79 43.57 219.78 288.7"/><line class="cls-1" x1="314.05" y1="166.14" x2="314.05" y2="350.61"/><rect class="cls-1" x="314.05" y="254.26" width="96.36" height="96.36"/><rect class="cls-1" x="435.04" y="218.21" width="96.36" height="96.36"/><polyline class="cls-2" points="435.04 314.56 435.04 350.61 531.39 350.61"/><rect class="cls-1" x="660.21" y="621.54" width="96.36" height="96.36" transform="translate(1318.21 972.15) rotate(180)"/><polyline class="cls-2" points="658 254.26 658 218.21 561.64 218.21"/><path class="cls-1" d="M827.12,585.49h0Z" transform="translate(-98.57 -367.28)"/><polyline class="cls-1" points="728.55 350.61 797.49 350.61 797.49 281.92 728.55 281.92 728.55 218.21"/><polyline class="cls-1" points="132.76 43.57 132.76 288.7 7 43.57 7 288.7"/></svg>