<?xml version="1.0" encoding="UTF-8" standalone="no"?>
<svg
   viewBox="0 0 441892.56 441892.56"
   version="1.1"
   id="svg414"
   width="441892.56"
   height="441892.56"
   xmlns="http://www.w3.org/2000/svg"
   xmlns:svg="http://www.w3.org/2000/svg">
  <defs
     id="defs397">
    <style
       id="style392">.cls-1{font-size:404.6px;fill:none;font-family:Manrope-Regular, Manrope;}.cls-2{fill:#171830;}.cls-3{fill:#35398e;}.cls-4{clip-path:url(#clip-path);}.cls-5,.cls-6{fill:#fff;}.cls-6{stroke:#fff;stroke-linecap:round;stroke-linejoin:round;stroke-width:8px;}</style>
  </defs>
  <g
     id="Calque_3"
     data-name="Calque 3">
    <polygon
       points="435.36,123.41 529.77,42.49 529.77,541.34 435.36,622.26 "
       id="polygon399" />
    <polygon
       class="cls-2"
       points="134.98,123.41 435.36,123.41 529.77,42.49 229.39,42.49 "
       id="polygon401" />
    <rect
       class="cls-3"
       x="134.98"
       y="-622.26001"
       width="300.38"
       height="498.85001"
       id="rect403"
       transform="scale(1,-1)" />
    <circle
       class="cls-6"
       cx="288.75"
       cy="202.42999"
       r="20.700001"
       id="circle411" />
    <path
       d="m 270.72,563.20001 q -23,0 -41,-9.4 -17.8,-9.6 -29.8,-26.8 v 30.2 h -26.4 v -288 h 29.6 v 97.4 q 12.2,-15 29.4,-23.2 17.4,-8.2 39.4,-8.2 28.8,0 50.2,14.8 21.6,14.8 33,40.8 11.4,25.8 11.4,58.2 0,32.6 -11.4,58.6 -11.4,26 -33.2,40.8 -21.6,14.8 -51.2,14.8 z m -70.8,-114.2 q 0,25.6 7.4,45.2 7.6,19.4 22.8,30.6 15.2,11 37.6,11 21.8,0 37,-11.2 15.2,-11.2 22.8,-30.8 7.8,-19.8 7.8,-44.8 0,-25 -7.6,-44.4 -7.4,-19.6 -22.8,-30.8 -15.4,-11.2 -37.8,-11.2 -22,0 -37.2,10.8 -15,10.8 -22.6,30.4 -7.4,19.4 -7.4,45.2 z"
       style="font-size:400px;font-family:Manrope;-inkscape-font-specification:Manrope;fill:#ffffff;stroke-width:0.341237"
       id="path1886" />
  </g>
</svg>
