<svg xmlns="http://www.w3.org/2000/svg" xmlns:xlink="http://www.w3.org/1999/xlink" viewBox="0 0 1301.68 660.59"><defs><style>.cls-1,.cls-11{font-size:300px;font-family:Manrope-Regular, Manrope;}.cls-1,.cls-8{fill:none;}.cls-2{letter-spacing:-0.09em;}.cls-3{letter-spacing:-0.06em;}.cls-4{letter-spacing:-0.02em;}.cls-5{letter-spacing:-0.03em;}.cls-6{letter-spacing:-0.03em;}.cls-7{letter-spacing:-0.04em;}.cls-9{fill:#171830;}.cls-10{fill:#35398e;}.cls-11{fill:#1d1d1b;}.cls-12{clip-path:url(#clip-path);}.cls-13,.cls-14{fill:#fff;}.cls-14{stroke:#fff;stroke-linecap:round;stroke-linejoin:round;stroke-width:8px;}</style><clipPath id="clip-path"><text class="cls-1" transform="translate(84.37 492.76)"><tspan class="cls-2">n</tspan><tspan class="cls-3" x="157.88" y="0">7</tspan><tspan class="cls-4" x="320.68" y="0">b</tspan><tspan class="cls-5" x="506.44" y="0">e</tspan><tspan class="cls-6" x="683.73" y="0">a</tspan><tspan class="cls-7" x="855.01" y="0">t</tspan><tspan x="976.2" y="0">s</tspan></text></clipPath></defs><g id="Calque_3" data-name="Calque 3"><line class="cls-8" x1="611.18" y1="545.24" x2="681.18" y2="485.24"/><polygon points="611.18 175.35 681.18 115.35 681.18 485.24 611.18 545.24 611.18 175.35"/><polygon class="cls-9" points="388.46 175.35 611.18 175.35 681.18 115.35 458.46 115.35 388.46 175.35"/><rect class="cls-10" x="388.46" y="175.35" width="222.72" height="369.88"/><text class="cls-11" transform="translate(84.37 492.76)"><tspan class="cls-2">n</tspan><tspan class="cls-3" x="157.88" y="0">7</tspan><tspan class="cls-4" x="320.68" y="0">b</tspan><tspan class="cls-5" x="506.44" y="0">e</tspan><tspan class="cls-6" x="683.73" y="0">a</tspan><tspan class="cls-7" x="855.01" y="0">t</tspan><tspan x="976.2" y="0">s</tspan></text><g class="cls-12"><polygon class="cls-13" points="611.18 175.35 681.18 115.35 681.18 485.24 611.18 545.24 611.18 175.35"/><rect class="cls-13" x="388.46" y="175.35" width="222.72" height="369.88"/></g><circle class="cls-14" cx="502.47" cy="233.94" r="15.35"/></g></svg>